<svg xmlns="http://www.w3.org/2000/svg" viewBox="0 0 1600 1000" preserveAspectRatio="xMidYMid slice" role="img" aria-label="AeroMetric cover">
<rect x="0" y="0" width="1600" height="1000" rx="0" fill="#0E0E10" opacity="1.0"/>
<line x1="0" y1="0" x2="0" y2="1000" stroke="#26262A" stroke-width="0.5" opacity="0.4"/>
<line x1="80" y1="0" x2="80" y2="1000" stroke="#26262A" stroke-width="0.5" opacity="0.4"/>
<line x1="160" y1="0" x2="160" y2="1000" stroke="#26262A" stroke-width="0.5" opacity="0.4"/>
<line x1="240" y1="0" x2="240" y2="1000" stroke="#26262A" stroke-width="0.5" opacity="0.4"/>
<line x1="320" y1="0" x2="320" y2="1000" stroke="#26262A" stroke-width="0.5" opacity="0.4"/>
<line x1="400" y1="0" x2="400" y2="1000" stroke="#26262A" stroke-width="0.5" opacity="0.4"/>
<line x1="480" y1="0" x2="480" y2="1000" stroke="#26262A" stroke-width="0.5" opacity="0.4"/>
<line x1="560" y1="0" x2="560" y2="1000" stroke="#26262A" stroke-width="0.5" opacity="0.4"/>
<line x1="640" y1="0" x2="640" y2="1000" stroke="#26262A" stroke-width="0.5" opacity="0.4"/>
<line x1="720" y1="0" x2="720" y2="1000" stroke="#26262A" stroke-width="0.5" opacity="0.4"/>
<line x1="800" y1="0" x2="800" y2="1000" stroke="#26262A" stroke-width="0.5" opacity="0.4"/>
<line x1="880" y1="0" x2="880" y2="1000" stroke="#26262A" stroke-width="0.5" opacity="0.4"/>
<line x1="960" y1="0" x2="960" y2="1000" stroke="#26262A" stroke-width="0.5" opacity="0.4"/>
<line x1="1040" y1="0" x2="1040" y2="1000" stroke="#26262A" stroke-width="0.5" opacity="0.4"/>
<line x1="1120" y1="0" x2="1120" y2="1000" stroke="#26262A" stroke-width="0.5" opacity="0.4"/>
<line x1="1200" y1="0" x2="1200" y2="1000" stroke="#26262A" stroke-width="0.5" opacity="0.4"/>
<line x1="1280" y1="0" x2="1280" y2="1000" stroke="#26262A" stroke-width="0.5" opacity="0.4"/>
<line x1="1360" y1="0" x2="1360" y2="1000" stroke="#26262A" stroke-width="0.5" opacity="0.4"/>
<line x1="1440" y1="0" x2="1440" y2="1000" stroke="#26262A" stroke-width="0.5" opacity="0.4"/>
<line x1="1520" y1="0" x2="1520" y2="1000" stroke="#26262A" stroke-width="0.5" opacity="0.4"/>
<line x1="0" y1="0" x2="1600" y2="0" stroke="#26262A" stroke-width="0.5" opacity="0.4"/>
<line x1="0" y1="80" x2="1600" y2="80" stroke="#26262A" stroke-width="0.5" opacity="0.4"/>
<line x1="0" y1="160" x2="1600" y2="160" stroke="#26262A" stroke-width="0.5" opacity="0.4"/>
<line x1="0" y1="240" x2="1600" y2="240" stroke="#26262A" stroke-width="0.5" opacity="0.4"/>
<line x1="0" y1="320" x2="1600" y2="320" stroke="#26262A" stroke-width="0.5" opacity="0.4"/>
<line x1="0" y1="400" x2="1600" y2="400" stroke="#26262A" stroke-width="0.5" opacity="0.4"/>
<line x1="0" y1="480" x2="1600" y2="480" stroke="#26262A" stroke-width="0.5" opacity="0.4"/>
<line x1="0" y1="560" x2="1600" y2="560" stroke="#26262A" stroke-width="0.5" opacity="0.4"/>
<line x1="0" y1="640" x2="1600" y2="640" stroke="#26262A" stroke-width="0.5" opacity="0.4"/>
<line x1="0" y1="720" x2="1600" y2="720" stroke="#26262A" stroke-width="0.5" opacity="0.4"/>
<line x1="0" y1="800" x2="1600" y2="800" stroke="#26262A" stroke-width="0.5" opacity="0.4"/>
<line x1="0" y1="880" x2="1600" y2="880" stroke="#26262A" stroke-width="0.5" opacity="0.4"/>
<line x1="0" y1="960" x2="1600" y2="960" stroke="#26262A" stroke-width="0.5" opacity="0.4"/>
<circle cx="250.00" cy="820.00" r="3.00" fill="#E5DED1" opacity="0.18"/>
<circle cx="260.00" cy="807.34" r="3.00" fill="#E5DED1" opacity="0.18"/>
<circle cx="270.00" cy="794.82" r="3.00" fill="#E5DED1" opacity="0.18"/>
<circle cx="280.00" cy="782.43" r="3.00" fill="#E5DED1" opacity="0.18"/>
<circle cx="290.00" cy="770.18" r="3.00" fill="#E5DED1" opacity="0.18"/>
<circle cx="300.00" cy="758.06" r="3.00" fill="#E5DED1" opacity="0.18"/>
<circle cx="310.00" cy="746.08" r="3.00" fill="#E5DED1" opacity="0.18"/>
<circle cx="320.00" cy="734.23" r="3.00" fill="#E5DED1" opacity="0.18"/>
<circle cx="330.00" cy="722.52" r="3.00" fill="#E5DED1" opacity="0.18"/>
<circle cx="340.00" cy="710.94" r="3.00" fill="#E5DED1" opacity="0.18"/>
<circle cx="350.00" cy="699.50" r="3.00" fill="#E5DED1" opacity="0.18"/>
<circle cx="360.00" cy="688.20" r="3.00" fill="#E5DED1" opacity="0.18"/>
<circle cx="370.00" cy="677.03" r="3.00" fill="#E5DED1" opacity="0.18"/>
<circle cx="380.00" cy="666.00" r="3.00" fill="#E5DED1" opacity="0.18"/>
<circle cx="390.00" cy="655.10" r="3.00" fill="#E5DED1" opacity="0.18"/>
<circle cx="400.00" cy="644.34" r="3.00" fill="#E5DED1" opacity="0.18"/>
<circle cx="410.00" cy="633.71" r="3.00" fill="#E5DED1" opacity="0.18"/>
<circle cx="420.00" cy="623.22" r="3.00" fill="#E5DED1" opacity="0.18"/>
<circle cx="430.00" cy="612.87" r="3.00" fill="#E5DED1" opacity="0.18"/>
<circle cx="440.00" cy="602.65" r="3.00" fill="#E5DED1" opacity="0.18"/>
<circle cx="450.00" cy="592.56" r="3.00" fill="#E5DED1" opacity="0.18"/>
<circle cx="460.00" cy="582.61" r="3.00" fill="#E5DED1" opacity="0.18"/>
<circle cx="470.00" cy="572.80" r="3.00" fill="#E5DED1" opacity="0.18"/>
<circle cx="480.00" cy="563.12" r="3.00" fill="#E5DED1" opacity="0.18"/>
<circle cx="490.00" cy="553.58" r="3.00" fill="#E5DED1" opacity="0.18"/>
<circle cx="500.00" cy="544.17" r="3.00" fill="#E5DED1" opacity="0.18"/>
<circle cx="510.00" cy="534.90" r="3.00" fill="#E5DED1" opacity="0.18"/>
<circle cx="520.00" cy="525.77" r="3.00" fill="#E5DED1" opacity="0.18"/>
<circle cx="530.00" cy="516.77" r="3.00" fill="#E5DED1" opacity="0.18"/>
<circle cx="540.00" cy="507.90" r="3.00" fill="#E5DED1" opacity="0.18"/>
<circle cx="550.00" cy="499.17" r="3.00" fill="#E5DED1" opacity="0.18"/>
<circle cx="560.00" cy="490.58" r="3.00" fill="#E5DED1" opacity="0.18"/>
<circle cx="570.00" cy="482.12" r="3.00" fill="#E5DED1" opacity="0.18"/>
<circle cx="580.00" cy="473.80" r="3.00" fill="#E5DED1" opacity="0.18"/>
<circle cx="590.00" cy="465.61" r="3.00" fill="#E5DED1" opacity="0.18"/>
<circle cx="600.00" cy="457.56" r="3.00" fill="#E5DED1" opacity="0.18"/>
<circle cx="610.00" cy="449.65" r="3.00" fill="#E5DED1" opacity="0.18"/>
<circle cx="620.00" cy="441.87" r="3.00" fill="#E5DED1" opacity="0.18"/>
<circle cx="630.00" cy="434.22" r="3.00" fill="#E5DED1" opacity="0.18"/>
<circle cx="640.00" cy="426.71" r="3.00" fill="#E5DED1" opacity="0.18"/>
<circle cx="650.00" cy="419.34" r="3.00" fill="#E5DED1" opacity="0.18"/>
<circle cx="660.00" cy="412.10" r="3.00" fill="#E5DED1" opacity="0.18"/>
<circle cx="670.00" cy="405.00" r="3.00" fill="#E5DED1" opacity="0.18"/>
<circle cx="680.00" cy="398.03" r="3.00" fill="#E5DED1" opacity="0.18"/>
<circle cx="690.00" cy="391.20" r="3.00" fill="#E5DED1" opacity="0.18"/>
<circle cx="700.00" cy="384.50" r="3.00" fill="#E5DED1" opacity="0.18"/>
<circle cx="710.00" cy="377.94" r="3.00" fill="#E5DED1" opacity="0.18"/>
<circle cx="720.00" cy="371.52" r="3.00" fill="#E5DED1" opacity="0.18"/>
<circle cx="730.00" cy="365.23" r="3.00" fill="#E5DED1" opacity="0.18"/>
<circle cx="740.00" cy="359.08" r="3.00" fill="#E5DED1" opacity="0.18"/>
<circle cx="750.00" cy="353.06" r="3.00" fill="#E5DED1" opacity="0.18"/>
<circle cx="760.00" cy="347.18" r="3.00" fill="#E5DED1" opacity="0.18"/>
<circle cx="770.00" cy="341.43" r="3.00" fill="#E5DED1" opacity="0.18"/>
<circle cx="780.00" cy="335.82" r="3.00" fill="#E5DED1" opacity="0.18"/>
<circle cx="790.00" cy="330.34" r="3.00" fill="#E5DED1" opacity="0.18"/>
<circle cx="800.00" cy="325.00" r="3.00" fill="#E5DED1" opacity="0.18"/>
<circle cx="810.00" cy="319.80" r="3.00" fill="#E5DED1" opacity="0.18"/>
<circle cx="820.00" cy="314.73" r="3.00" fill="#E5DED1" opacity="0.18"/>
<circle cx="830.00" cy="309.79" r="3.00" fill="#E5DED1" opacity="0.18"/>
<circle cx="840.00" cy="304.99" r="3.00" fill="#E5DED1" opacity="0.18"/>
<circle cx="850.00" cy="300.33" r="3.00" fill="#E5DED1" opacity="0.18"/>
<circle cx="860.00" cy="295.80" r="3.00" fill="#E5DED1" opacity="0.18"/>
<circle cx="870.00" cy="291.41" r="3.00" fill="#E5DED1" opacity="0.18"/>
<circle cx="880.00" cy="287.16" r="3.00" fill="#E5DED1" opacity="0.18"/>
<circle cx="890.00" cy="283.03" r="3.00" fill="#E5DED1" opacity="0.18"/>
<circle cx="900.00" cy="279.05" r="3.00" fill="#E5DED1" opacity="0.18"/>
<circle cx="910.00" cy="275.20" r="3.00" fill="#E5DED1" opacity="0.18"/>
<circle cx="920.00" cy="271.49" r="3.00" fill="#E5DED1" opacity="0.18"/>
<circle cx="930.00" cy="267.91" r="3.00" fill="#E5DED1" opacity="0.18"/>
<circle cx="940.00" cy="264.46" r="3.00" fill="#E5DED1" opacity="0.18"/>
<circle cx="950.00" cy="261.16" r="3.00" fill="#E5DED1" opacity="0.18"/>
<circle cx="960.00" cy="257.99" r="3.00" fill="#E5DED1" opacity="0.18"/>
<circle cx="970.00" cy="254.95" r="3.00" fill="#E5DED1" opacity="0.18"/>
<circle cx="980.00" cy="252.05" r="3.00" fill="#E5DED1" opacity="0.18"/>
<circle cx="990.00" cy="249.28" r="3.00" fill="#E5DED1" opacity="0.18"/>
<circle cx="1000.00" cy="246.65" r="3.00" fill="#E5DED1" opacity="0.18"/>
<circle cx="1010.00" cy="244.16" r="3.00" fill="#E5DED1" opacity="0.18"/>
<circle cx="1020.00" cy="241.80" r="3.00" fill="#E5DED1" opacity="0.18"/>
<circle cx="1030.00" cy="239.58" r="3.00" fill="#E5DED1" opacity="0.18"/>
<circle cx="1040.00" cy="237.49" r="3.00" fill="#E5DED1" opacity="0.18"/>
<circle cx="1050.00" cy="235.54" r="3.00" fill="#E5DED1" opacity="0.18"/>
<circle cx="1060.00" cy="233.72" r="3.00" fill="#E5DED1" opacity="0.18"/>
<circle cx="1070.00" cy="232.04" r="3.00" fill="#E5DED1" opacity="0.18"/>
<circle cx="1080.00" cy="230.49" r="3.00" fill="#E5DED1" opacity="0.18"/>
<circle cx="1090.00" cy="229.08" r="3.00" fill="#E5DED1" opacity="0.18"/>
<circle cx="1100.00" cy="227.81" r="3.00" fill="#E5DED1" opacity="0.18"/>
<circle cx="1110.00" cy="226.67" r="3.00" fill="#E5DED1" opacity="0.18"/>
<circle cx="1120.00" cy="225.67" r="3.00" fill="#E5DED1" opacity="0.18"/>
<circle cx="1130.00" cy="224.80" r="3.00" fill="#E5DED1" opacity="0.18"/>
<circle cx="1140.00" cy="224.07" r="3.00" fill="#E5DED1" opacity="0.18"/>
<circle cx="1150.00" cy="223.47" r="3.00" fill="#E5DED1" opacity="0.18"/>
<circle cx="1160.00" cy="223.01" r="3.00" fill="#E5DED1" opacity="0.18"/>
<circle cx="1170.00" cy="222.68" r="3.00" fill="#E5DED1" opacity="0.18"/>
<circle cx="1180.00" cy="222.49" r="3.00" fill="#E5DED1" opacity="0.18"/>
<circle cx="1190.00" cy="222.44" r="3.00" fill="#E5DED1" opacity="0.18"/>
<circle cx="1200.00" cy="222.52" r="3.00" fill="#E5DED1" opacity="0.18"/>
<circle cx="1210.00" cy="222.74" r="3.00" fill="#E5DED1" opacity="0.18"/>
<circle cx="1220.00" cy="223.09" r="3.00" fill="#E5DED1" opacity="0.18"/>
<circle cx="1230.00" cy="223.58" r="3.00" fill="#E5DED1" opacity="0.18"/>
<circle cx="1240.00" cy="224.20" r="3.00" fill="#E5DED1" opacity="0.18"/>
<circle cx="1250.00" cy="224.96" r="3.00" fill="#E5DED1" opacity="0.18"/>
<circle cx="1260.00" cy="225.85" r="3.00" fill="#E5DED1" opacity="0.18"/>
<circle cx="1270.00" cy="226.88" r="3.00" fill="#E5DED1" opacity="0.18"/>
<circle cx="1280.00" cy="228.05" r="3.00" fill="#E5DED1" opacity="0.18"/>
<circle cx="1290.00" cy="229.35" r="3.00" fill="#E5DED1" opacity="0.18"/>
<circle cx="1300.00" cy="230.79" r="3.00" fill="#E5DED1" opacity="0.18"/>
<circle cx="1310.00" cy="232.36" r="3.00" fill="#E5DED1" opacity="0.18"/>
<circle cx="1320.00" cy="234.06" r="3.00" fill="#E5DED1" opacity="0.18"/>
<circle cx="1330.00" cy="235.91" r="3.00" fill="#E5DED1" opacity="0.18"/>
<circle cx="1340.00" cy="237.89" r="3.00" fill="#E5DED1" opacity="0.18"/>
<circle cx="1350.00" cy="240.00" r="3.00" fill="#E5DED1" opacity="0.18"/>
<circle cx="250.00" cy="820.00" r="5.50" fill="#F2EDE4" opacity="0.85"/>
<circle cx="260.00" cy="807.34" r="3.50" fill="#E5DED1" opacity="0.55"/>
<circle cx="270.00" cy="794.82" r="3.50" fill="#E5DED1" opacity="0.55"/>
<circle cx="280.00" cy="782.43" r="3.50" fill="#E5DED1" opacity="0.55"/>
<circle cx="290.00" cy="770.18" r="3.50" fill="#E5DED1" opacity="0.55"/>
<circle cx="300.00" cy="758.06" r="3.50" fill="#E5DED1" opacity="0.55"/>
<circle cx="310.00" cy="746.08" r="5.50" fill="#F2EDE4" opacity="0.85"/>
<circle cx="320.00" cy="734.23" r="3.50" fill="#E5DED1" opacity="0.55"/>
<circle cx="330.00" cy="722.52" r="3.50" fill="#E5DED1" opacity="0.55"/>
<circle cx="340.00" cy="710.94" r="3.50" fill="#E5DED1" opacity="0.55"/>
<circle cx="350.00" cy="699.50" r="3.50" fill="#E5DED1" opacity="0.55"/>
<circle cx="360.00" cy="688.20" r="3.50" fill="#E5DED1" opacity="0.55"/>
<circle cx="370.00" cy="677.03" r="5.50" fill="#F2EDE4" opacity="0.85"/>
<circle cx="380.00" cy="666.00" r="3.50" fill="#E5DED1" opacity="0.55"/>
<circle cx="390.00" cy="655.10" r="3.50" fill="#E5DED1" opacity="0.55"/>
<circle cx="400.00" cy="644.34" r="3.50" fill="#E5DED1" opacity="0.55"/>
<circle cx="410.00" cy="633.71" r="3.50" fill="#E5DED1" opacity="0.55"/>
<circle cx="420.00" cy="623.22" r="3.50" fill="#E5DED1" opacity="0.55"/>
<circle cx="430.00" cy="612.87" r="5.50" fill="#F2EDE4" opacity="0.85"/>
<circle cx="440.00" cy="602.65" r="3.50" fill="#E5DED1" opacity="0.55"/>
<circle cx="450.00" cy="592.56" r="3.50" fill="#E5DED1" opacity="0.55"/>
<circle cx="460.00" cy="582.61" r="3.50" fill="#E5DED1" opacity="0.55"/>
<circle cx="470.00" cy="572.80" r="3.50" fill="#E5DED1" opacity="0.55"/>
<circle cx="480.00" cy="563.12" r="3.50" fill="#E5DED1" opacity="0.55"/>
<circle cx="490.00" cy="553.58" r="5.50" fill="#F2EDE4" opacity="0.85"/>
<circle cx="500.00" cy="544.17" r="3.50" fill="#E5DED1" opacity="0.55"/>
<circle cx="510.00" cy="534.90" r="3.50" fill="#E5DED1" opacity="0.55"/>
<circle cx="520.00" cy="525.77" r="3.50" fill="#E5DED1" opacity="0.55"/>
<circle cx="530.00" cy="516.77" r="3.50" fill="#E5DED1" opacity="0.55"/>
<circle cx="540.00" cy="507.90" r="3.50" fill="#E5DED1" opacity="0.55"/>
<circle cx="550.00" cy="499.17" r="5.50" fill="#F2EDE4" opacity="0.85"/>
<circle cx="560.00" cy="490.58" r="3.50" fill="#E5DED1" opacity="0.55"/>
<circle cx="570.00" cy="482.12" r="3.50" fill="#E5DED1" opacity="0.55"/>
<circle cx="580.00" cy="473.80" r="3.50" fill="#E5DED1" opacity="0.55"/>
<circle cx="590.00" cy="465.61" r="3.50" fill="#E5DED1" opacity="0.55"/>
<circle cx="600.00" cy="457.56" r="3.50" fill="#E5DED1" opacity="0.55"/>
<circle cx="610.00" cy="449.65" r="5.50" fill="#F2EDE4" opacity="0.85"/>
<circle cx="620.00" cy="441.87" r="3.50" fill="#E5DED1" opacity="0.55"/>
<circle cx="630.00" cy="434.22" r="3.50" fill="#E5DED1" opacity="0.55"/>
<circle cx="640.00" cy="426.71" r="3.50" fill="#E5DED1" opacity="0.55"/>
<circle cx="650.00" cy="419.34" r="3.50" fill="#E5DED1" opacity="0.55"/>
<circle cx="660.00" cy="412.10" r="3.50" fill="#E5DED1" opacity="0.55"/>
<circle cx="670.00" cy="405.00" r="9.00" fill="#E85A2B" opacity="0.95"/>
<circle cx="680.00" cy="398.03" r="9.00" fill="#E85A2B" opacity="0.95"/>
<circle cx="690.00" cy="391.20" r="9.00" fill="#E85A2B" opacity="0.95"/>
<circle cx="700.00" cy="384.50" r="9.00" fill="#E85A2B" opacity="0.95"/>
<circle cx="710.00" cy="377.94" r="9.00" fill="#E85A2B" opacity="0.95"/>
<circle cx="720.00" cy="371.52" r="9.00" fill="#E85A2B" opacity="0.95"/>
<circle cx="730.00" cy="365.23" r="9.00" fill="#E85A2B" opacity="0.95"/>
<circle cx="740.00" cy="359.08" r="3.50" fill="#E5DED1" opacity="0.55"/>
<circle cx="750.00" cy="353.06" r="3.50" fill="#E5DED1" opacity="0.55"/>
<circle cx="760.00" cy="347.18" r="3.50" fill="#E5DED1" opacity="0.55"/>
<circle cx="770.00" cy="341.43" r="3.50" fill="#E5DED1" opacity="0.55"/>
<circle cx="780.00" cy="335.82" r="3.50" fill="#E5DED1" opacity="0.55"/>
<circle cx="790.00" cy="330.34" r="5.50" fill="#F2EDE4" opacity="0.85"/>
<circle cx="800.00" cy="325.00" r="3.50" fill="#E5DED1" opacity="0.55"/>
<circle cx="810.00" cy="319.80" r="3.50" fill="#E5DED1" opacity="0.55"/>
<circle cx="820.00" cy="314.73" r="3.50" fill="#E5DED1" opacity="0.55"/>
<circle cx="830.00" cy="309.79" r="3.50" fill="#E5DED1" opacity="0.55"/>
<circle cx="840.00" cy="304.99" r="3.50" fill="#E5DED1" opacity="0.55"/>
<circle cx="850.00" cy="300.33" r="5.50" fill="#F2EDE4" opacity="0.85"/>
<circle cx="860.00" cy="295.80" r="3.50" fill="#E5DED1" opacity="0.55"/>
<circle cx="870.00" cy="291.41" r="3.50" fill="#E5DED1" opacity="0.55"/>
<circle cx="880.00" cy="287.16" r="3.50" fill="#E5DED1" opacity="0.55"/>
<circle cx="890.00" cy="283.03" r="3.50" fill="#E5DED1" opacity="0.55"/>
<circle cx="900.00" cy="279.05" r="3.50" fill="#E5DED1" opacity="0.55"/>
<circle cx="910.00" cy="275.20" r="5.50" fill="#F2EDE4" opacity="0.85"/>
<circle cx="920.00" cy="271.49" r="3.50" fill="#E5DED1" opacity="0.55"/>
<circle cx="930.00" cy="267.91" r="3.50" fill="#E5DED1" opacity="0.55"/>
<circle cx="940.00" cy="264.46" r="3.50" fill="#E5DED1" opacity="0.55"/>
<circle cx="950.00" cy="261.16" r="3.50" fill="#E5DED1" opacity="0.55"/>
<circle cx="960.00" cy="257.99" r="3.50" fill="#E5DED1" opacity="0.55"/>
<circle cx="970.00" cy="254.95" r="5.50" fill="#F2EDE4" opacity="0.85"/>
<circle cx="980.00" cy="252.05" r="3.50" fill="#E5DED1" opacity="0.55"/>
<circle cx="990.00" cy="249.28" r="3.50" fill="#E5DED1" opacity="0.55"/>
<circle cx="1000.00" cy="246.65" r="3.50" fill="#E5DED1" opacity="0.55"/>
<circle cx="1010.00" cy="244.16" r="3.50" fill="#E5DED1" opacity="0.55"/>
<circle cx="1020.00" cy="241.80" r="3.50" fill="#E5DED1" opacity="0.55"/>
<circle cx="1030.00" cy="239.58" r="5.50" fill="#F2EDE4" opacity="0.85"/>
<circle cx="1040.00" cy="237.49" r="3.50" fill="#E5DED1" opacity="0.55"/>
<circle cx="1050.00" cy="235.54" r="3.50" fill="#E5DED1" opacity="0.55"/>
<circle cx="1060.00" cy="233.72" r="3.50" fill="#E5DED1" opacity="0.55"/>
<circle cx="1070.00" cy="232.04" r="3.50" fill="#E5DED1" opacity="0.55"/>
<circle cx="1080.00" cy="230.49" r="3.50" fill="#E5DED1" opacity="0.55"/>
<circle cx="1090.00" cy="229.08" r="5.50" fill="#F2EDE4" opacity="0.85"/>
<circle cx="1100.00" cy="227.81" r="3.50" fill="#E5DED1" opacity="0.55"/>
<circle cx="1110.00" cy="226.67" r="3.50" fill="#E5DED1" opacity="0.55"/>
<circle cx="1120.00" cy="225.67" r="3.50" fill="#E5DED1" opacity="0.55"/>
<circle cx="1130.00" cy="224.80" r="3.50" fill="#E5DED1" opacity="0.55"/>
<circle cx="1140.00" cy="224.07" r="3.50" fill="#E5DED1" opacity="0.55"/>
<circle cx="1150.00" cy="223.47" r="5.50" fill="#F2EDE4" opacity="0.85"/>
<circle cx="1160.00" cy="223.01" r="3.50" fill="#E5DED1" opacity="0.55"/>
<circle cx="1170.00" cy="222.68" r="3.50" fill="#E5DED1" opacity="0.55"/>
<circle cx="1180.00" cy="222.49" r="3.50" fill="#E5DED1" opacity="0.55"/>
<circle cx="1190.00" cy="222.44" r="3.50" fill="#E5DED1" opacity="0.55"/>
<circle cx="1200.00" cy="222.52" r="3.50" fill="#E5DED1" opacity="0.55"/>
<circle cx="1210.00" cy="222.74" r="5.50" fill="#F2EDE4" opacity="0.85"/>
<circle cx="1220.00" cy="223.09" r="3.50" fill="#E5DED1" opacity="0.55"/>
<circle cx="1230.00" cy="223.58" r="3.50" fill="#E5DED1" opacity="0.55"/>
<circle cx="1240.00" cy="224.20" r="3.50" fill="#E5DED1" opacity="0.55"/>
<circle cx="1250.00" cy="224.96" r="3.50" fill="#E5DED1" opacity="0.55"/>
<circle cx="1260.00" cy="225.85" r="3.50" fill="#E5DED1" opacity="0.55"/>
<circle cx="1270.00" cy="226.88" r="5.50" fill="#F2EDE4" opacity="0.85"/>
<circle cx="1280.00" cy="228.05" r="3.50" fill="#E5DED1" opacity="0.55"/>
<circle cx="1290.00" cy="229.35" r="3.50" fill="#E5DED1" opacity="0.55"/>
<circle cx="1300.00" cy="230.79" r="3.50" fill="#E5DED1" opacity="0.55"/>
<circle cx="1310.00" cy="232.36" r="3.50" fill="#E5DED1" opacity="0.55"/>
<circle cx="1320.00" cy="234.06" r="3.50" fill="#E5DED1" opacity="0.55"/>
<circle cx="1330.00" cy="235.91" r="5.50" fill="#F2EDE4" opacity="0.85"/>
<circle cx="1340.00" cy="237.89" r="3.50" fill="#E5DED1" opacity="0.55"/>
<circle cx="1350.00" cy="240.00" r="3.50" fill="#E5DED1" opacity="0.55"/>
<line x1="670.0" y1="422.998347107438" x2="670.0" y2="440.998347107438" stroke="#E85A2B" stroke-width="1.0" opacity="0.6"/>
<text x="670.0" y="460.998347107438" font-family="ui-monospace, SFMono-Regular, Menlo, Consolas, monospace" font-size="11" font-weight="400" fill="#E85A2B" letter-spacing="2" text-anchor="middle">PEAK</text>
<line x1="680.0000000000001" y1="416.03140495867774" x2="680.0000000000001" y2="434.03140495867774" stroke="#E85A2B" stroke-width="1.0" opacity="0.6"/>
<line x1="690.0" y1="409.19999999999993" x2="690.0" y2="427.19999999999993" stroke="#E85A2B" stroke-width="1.0" opacity="0.6"/>
<line x1="700.0" y1="402.50413223140487" x2="700.0" y2="420.50413223140487" stroke="#E85A2B" stroke-width="1.0" opacity="0.6"/>
<line x1="709.9999999999999" y1="395.94380165289255" x2="709.9999999999999" y2="413.94380165289255" stroke="#E85A2B" stroke-width="1.0" opacity="0.6"/>
<line x1="720.0" y1="389.5190082644628" x2="720.0" y2="407.5190082644628" stroke="#E85A2B" stroke-width="1.0" opacity="0.6"/>
<line x1="730.0" y1="383.22975206611574" x2="730.0" y2="401.22975206611574" stroke="#E85A2B" stroke-width="1.0" opacity="0.6"/>
<text x="730.0" y="421.22975206611574" font-family="ui-monospace, SFMono-Regular, Menlo, Consolas, monospace" font-size="11" font-weight="400" fill="#E85A2B" letter-spacing="2" text-anchor="middle">PEAK</text>
<text x="80" y="880" font-family="ui-monospace, SFMono-Regular, Menlo, Consolas, monospace" font-size="88" font-weight="700" fill="#F2EDE4" letter-spacing="6" text-anchor="start">AEROMETRIC</text>
<text x="80" y="920" font-family="ui-monospace, SFMono-Regular, Menlo, Consolas, monospace" font-size="18" font-weight="500" fill="#E5DED1" letter-spacing="3" text-anchor="start">5.8M FLIGHTS  ·  LightGBM  ·  SHAP</text>
<text x="80" y="950" font-family="ui-monospace, SFMono-Regular, Menlo, Consolas, monospace" font-size="14" font-weight="600" fill="#E85A2B" letter-spacing="3" text-anchor="start">BLR → DEL  ·  87%  ·  18:42 IST</text>
<text x="1520" y="80" font-family="ui-monospace, SFMono-Regular, Menlo, Consolas, monospace" font-size="14" font-weight="500" fill="#E5DED1" letter-spacing="3" text-anchor="end">01 / 04</text>
<text x="1520" y="104" font-family="ui-monospace, SFMono-Regular, Menlo, Consolas, monospace" font-size="12" font-weight="500" fill="#E5DED1" letter-spacing="3" text-anchor="end">AVIATION · ML</text>
</svg>